<svg height="3054" width="720" xmlns="http://www.w3.org/2000/svg">
<rect height="3054" fill="#555" width="720"></rect>
<text fill="#7f7" font-family="Courier New" font-size="12" xml:space="preserve">
<tspan x="10" y="26">45 megabytes installed</tspan>
<tspan x="10" y="42"></tspan>
<tspan x="10" y="58">node_modules</tspan>
<tspan x="10" y="74">└─┬ electron-rebuild@1.5.7 </tspan>
<tspan x="10" y="90">  ├─┬ babel-register@6.24.1 </tspan>
<tspan x="10" y="106">  │ ├─┬ babel-core@6.24.1 </tspan>
<tspan x="10" y="122">  │ │ ├─┬ babel-code-frame@6.22.0 </tspan>
<tspan x="10" y="138">  │ │ │ ├── esutils@2.0.2 </tspan>
<tspan x="10" y="154">  │ │ │ └── js-tokens@3.0.1 </tspan>
<tspan x="10" y="170">  │ │ ├─┬ babel-generator@6.24.1 </tspan>
<tspan x="10" y="186">  │ │ │ ├── babel-runtime@6.23.0 </tspan>
<tspan x="10" y="202">  │ │ │ ├─┬ detect-indent@4.0.0 </tspan>
<tspan x="10" y="218">  │ │ │ │ └─┬ repeating@2.0.1 </tspan>
<tspan x="10" y="234">  │ │ │ │   └── is-finite@1.0.2 </tspan>
<tspan x="10" y="250">  │ │ │ ├── jsesc@1.3.0 </tspan>
<tspan x="10" y="266">  │ │ │ └── trim-right@1.0.1 </tspan>
<tspan x="10" y="282">  │ │ ├─┬ babel-helpers@6.24.1 </tspan>
<tspan x="10" y="298">  │ │ │ └── babel-runtime@6.23.0 </tspan>
<tspan x="10" y="314">  │ │ ├─┬ babel-messages@6.23.0 </tspan>
<tspan x="10" y="330">  │ │ │ └── babel-runtime@6.23.0 </tspan>
<tspan x="10" y="346">  │ │ ├── babel-runtime@6.23.0 </tspan>
<tspan x="10" y="362">  │ │ ├─┬ babel-template@6.24.1 </tspan>
<tspan x="10" y="378">  │ │ │ └── babel-runtime@6.23.0 </tspan>
<tspan x="10" y="394">  │ │ ├─┬ babel-traverse@6.24.1 </tspan>
<tspan x="10" y="410">  │ │ │ ├── babel-runtime@6.23.0 </tspan>
<tspan x="10" y="426">  │ │ │ ├── globals@9.17.0 </tspan>
<tspan x="10" y="442">  │ │ │ └─┬ invariant@2.2.2 </tspan>
<tspan x="10" y="458">  │ │ │   └── loose-envify@1.3.1 </tspan>
<tspan x="10" y="474">  │ │ ├─┬ babel-types@6.24.1 </tspan>
<tspan x="10" y="490">  │ │ │ ├── babel-runtime@6.23.0 </tspan>
<tspan x="10" y="506">  │ │ │ └── to-fast-properties@1.0.2 </tspan>
<tspan x="10" y="522">  │ │ ├── babylon@6.17.0 </tspan>
<tspan x="10" y="538">  │ │ ├── convert-source-map@1.5.0 </tspan>
<tspan x="10" y="554">  │ │ ├── json5@0.5.1 </tspan>
<tspan x="10" y="570">  │ │ ├── path-is-absolute@1.0.1 </tspan>
<tspan x="10" y="586">  │ │ ├── private@0.1.7 </tspan>
<tspan x="10" y="602">  │ │ ├── slash@1.0.0 </tspan>
<tspan x="10" y="618">  │ │ └── source-map@0.5.6 </tspan>
<tspan x="10" y="634">  │ ├─┬ babel-runtime@6.23.0 </tspan>
<tspan x="10" y="650">  │ │ └── regenerator-runtime@0.10.3 </tspan>
<tspan x="10" y="666">  │ ├── core-js@2.4.1 </tspan>
<tspan x="10" y="682">  │ ├─┬ home-or-tmp@2.0.0 </tspan>
<tspan x="10" y="698">  │ │ ├── os-homedir@1.0.2 </tspan>
<tspan x="10" y="714">  │ │ └── os-tmpdir@1.0.2 </tspan>
<tspan x="10" y="730">  │ ├── lodash@4.17.4 </tspan>
<tspan x="10" y="746">  │ ├─┬ mkdirp@0.5.1 </tspan>
<tspan x="10" y="762">  │ │ └── minimist@0.0.8 </tspan>
<tspan x="10" y="778">  │ └── source-map-support@0.4.14 </tspan>
<tspan x="10" y="794">  ├─┬ babel-runtime@6.18.0 </tspan>
<tspan x="10" y="810">  │ └── regenerator-runtime@0.9.6 </tspan>
<tspan x="10" y="826">  ├── bluebird@3.5.0 </tspan>
<tspan x="10" y="842">  ├── colors@1.1.2 </tspan>
<tspan x="10" y="858">  ├─┬ debug@2.6.4 </tspan>
<tspan x="10" y="874">  │ └── ms@0.7.3 </tspan>
<tspan x="10" y="890">  ├─┬ fs-promise@1.0.0 </tspan>
<tspan x="10" y="906">  │ ├── any-promise@1.3.0 </tspan>
<tspan x="10" y="922">  │ ├─┬ fs-extra@1.0.0 </tspan>
<tspan x="10" y="938">  │ │ ├── jsonfile@2.4.0 </tspan>
<tspan x="10" y="954">  │ │ └── klaw@1.3.1 </tspan>
<tspan x="10" y="970">  │ ├─┬ mz@2.6.0 </tspan>
<tspan x="10" y="986">  │ │ └── object-assign@4.1.1 </tspan>
<tspan x="10" y="1002">  │ └─┬ thenify-all@1.6.0 </tspan>
<tspan x="10" y="1018">  │   └── thenify@3.2.1 </tspan>
<tspan x="10" y="1034">  ├── node-abi@1.3.3 </tspan>
<tspan x="10" y="1050">  ├─┬ node-gyp@3.6.0 </tspan>
<tspan x="10" y="1066">  │ ├─┬ fstream@1.0.11 </tspan>
<tspan x="10" y="1082">  │ │ └── inherits@2.0.3 </tspan>
<tspan x="10" y="1098">  │ ├─┬ glob@7.1.1 </tspan>
<tspan x="10" y="1114">  │ │ ├── fs.realpath@1.0.0 </tspan>
<tspan x="10" y="1130">  │ │ ├─┬ inflight@1.0.6 </tspan>
<tspan x="10" y="1146">  │ │ │ └── wrappy@1.0.2 </tspan>
<tspan x="10" y="1162">  │ │ └── once@1.4.0 </tspan>
<tspan x="10" y="1178">  │ ├── graceful-fs@4.1.11 </tspan>
<tspan x="10" y="1194">  │ ├─┬ minimatch@3.0.3 </tspan>
<tspan x="10" y="1210">  │ │ └─┬ brace-expansion@1.1.7 </tspan>
<tspan x="10" y="1226">  │ │   ├── balanced-match@0.4.2 </tspan>
<tspan x="10" y="1242">  │ │   └── concat-map@0.0.1 </tspan>
<tspan x="10" y="1258">  │ ├─┬ nopt@3.0.6 </tspan>
<tspan x="10" y="1274">  │ │ └── abbrev@1.1.0 </tspan>
<tspan x="10" y="1290">  │ ├─┬ npmlog@4.0.2 </tspan>
<tspan x="10" y="1306">  │ │ ├─┬ are-we-there-yet@1.1.4 </tspan>
<tspan x="10" y="1322">  │ │ │ ├── delegates@1.0.0 </tspan>
<tspan x="10" y="1338">  │ │ │ └─┬ readable-stream@2.2.9 </tspan>
<tspan x="10" y="1354">  │ │ │   ├── buffer-shims@1.0.0 </tspan>
<tspan x="10" y="1370">  │ │ │   ├── core-util-is@1.0.2 </tspan>
<tspan x="10" y="1386">  │ │ │   ├── isarray@1.0.0 </tspan>
<tspan x="10" y="1402">  │ │ │   ├── process-nextick-args@1.0.7 </tspan>
<tspan x="10" y="1418">  │ │ │   ├── string_decoder@1.0.0 </tspan>
<tspan x="10" y="1434">  │ │ │   └── util-deprecate@1.0.2 </tspan>
<tspan x="10" y="1450">  │ │ ├── console-control-strings@1.1.0 </tspan>
<tspan x="10" y="1466">  │ │ ├─┬ gauge@2.7.4 </tspan>
<tspan x="10" y="1482">  │ │ │ ├── aproba@1.1.1 </tspan>
<tspan x="10" y="1498">  │ │ │ ├── has-unicode@2.0.1 </tspan>
<tspan x="10" y="1514">  │ │ │ ├── signal-exit@3.0.2 </tspan>
<tspan x="10" y="1530">  │ │ │ └── wide-align@1.1.0 </tspan>
<tspan x="10" y="1546">  │ │ └── set-blocking@2.0.0 </tspan>
<tspan x="10" y="1562">  │ ├── osenv@0.1.4 </tspan>
<tspan x="10" y="1578">  │ ├─┬ request@2.81.0 </tspan>
<tspan x="10" y="1594">  │ │ ├── aws-sign2@0.6.0 </tspan>
<tspan x="10" y="1610">  │ │ ├── aws4@1.6.0 </tspan>
<tspan x="10" y="1626">  │ │ ├── caseless@0.12.0 </tspan>
<tspan x="10" y="1642">  │ │ ├─┬ combined-stream@1.0.5 </tspan>
<tspan x="10" y="1658">  │ │ │ └── delayed-stream@1.0.0 </tspan>
<tspan x="10" y="1674">  │ │ ├── extend@3.0.0 </tspan>
<tspan x="10" y="1690">  │ │ ├── forever-agent@0.6.1 </tspan>
<tspan x="10" y="1706">  │ │ ├─┬ form-data@2.1.4 </tspan>
<tspan x="10" y="1722">  │ │ │ └── asynckit@0.4.0 </tspan>
<tspan x="10" y="1738">  │ │ ├─┬ har-validator@4.2.1 </tspan>
<tspan x="10" y="1754">  │ │ │ ├─┬ ajv@4.11.7 </tspan>
<tspan x="10" y="1770">  │ │ │ │ ├── co@4.6.0 </tspan>
<tspan x="10" y="1786">  │ │ │ │ └─┬ json-stable-stringify@1.0.1 </tspan>
<tspan x="10" y="1802">  │ │ │ │   └── jsonify@0.0.0 </tspan>
<tspan x="10" y="1818">  │ │ │ └── har-schema@1.0.5 </tspan>
<tspan x="10" y="1834">  │ │ ├─┬ hawk@3.1.3 </tspan>
<tspan x="10" y="1850">  │ │ │ ├── boom@2.10.1 </tspan>
<tspan x="10" y="1866">  │ │ │ ├── cryptiles@2.0.5 </tspan>
<tspan x="10" y="1882">  │ │ │ ├── hoek@2.16.3 </tspan>
<tspan x="10" y="1898">  │ │ │ └── sntp@1.0.9 </tspan>
<tspan x="10" y="1914">  │ │ ├─┬ http-signature@1.1.1 </tspan>
<tspan x="10" y="1930">  │ │ │ ├── assert-plus@0.2.0 </tspan>
<tspan x="10" y="1946">  │ │ │ ├─┬ jsprim@1.4.0 </tspan>
<tspan x="10" y="1962">  │ │ │ │ ├── assert-plus@1.0.0 </tspan>
<tspan x="10" y="1978">  │ │ │ │ ├── extsprintf@1.0.2 </tspan>
<tspan x="10" y="1994">  │ │ │ │ ├── json-schema@0.2.3 </tspan>
<tspan x="10" y="2010">  │ │ │ │ └── verror@1.3.6 </tspan>
<tspan x="10" y="2026">  │ │ │ └─┬ sshpk@1.13.0 </tspan>
<tspan x="10" y="2042">  │ │ │   ├── asn1@0.2.3 </tspan>
<tspan x="10" y="2058">  │ │ │   ├── assert-plus@1.0.0 </tspan>
<tspan x="10" y="2074">  │ │ │   ├── bcrypt-pbkdf@1.0.1 </tspan>
<tspan x="10" y="2090">  │ │ │   ├─┬ dashdash@1.14.1 </tspan>
<tspan x="10" y="2106">  │ │ │   │ └── assert-plus@1.0.0 </tspan>
<tspan x="10" y="2122">  │ │ │   ├── ecc-jsbn@0.1.1 </tspan>
<tspan x="10" y="2138">  │ │ │   ├─┬ getpass@0.1.6 </tspan>
<tspan x="10" y="2154">  │ │ │   │ └── assert-plus@1.0.0 </tspan>
<tspan x="10" y="2170">  │ │ │   ├── jodid25519@1.0.2 </tspan>
<tspan x="10" y="2186">  │ │ │   ├── jsbn@0.1.1 </tspan>
<tspan x="10" y="2202">  │ │ │   └── tweetnacl@0.14.5 </tspan>
<tspan x="10" y="2218">  │ │ ├── is-typedarray@1.0.0 </tspan>
<tspan x="10" y="2234">  │ │ ├── isstream@0.1.2 </tspan>
<tspan x="10" y="2250">  │ │ ├── json-stringify-safe@5.0.1 </tspan>
<tspan x="10" y="2266">  │ │ ├─┬ mime-types@2.1.15 </tspan>
<tspan x="10" y="2282">  │ │ │ └── mime-db@1.27.0 </tspan>
<tspan x="10" y="2298">  │ │ ├── oauth-sign@0.8.2 </tspan>
<tspan x="10" y="2314">  │ │ ├── performance-now@0.2.0 </tspan>
<tspan x="10" y="2330">  │ │ ├── qs@6.4.0 </tspan>
<tspan x="10" y="2346">  │ │ ├── safe-buffer@5.0.1 </tspan>
<tspan x="10" y="2362">  │ │ ├── stringstream@0.0.5 </tspan>
<tspan x="10" y="2378">  │ │ ├─┬ tough-cookie@2.3.2 </tspan>
<tspan x="10" y="2394">  │ │ │ └── punycode@1.4.1 </tspan>
<tspan x="10" y="2410">  │ │ ├── tunnel-agent@0.6.0 </tspan>
<tspan x="10" y="2426">  │ │ └── uuid@3.0.1 </tspan>
<tspan x="10" y="2442">  │ ├── semver@5.3.0 </tspan>
<tspan x="10" y="2458">  │ ├─┬ tar@2.2.1 </tspan>
<tspan x="10" y="2474">  │ │ └── block-stream@0.0.9 </tspan>
<tspan x="10" y="2490">  │ └─┬ which@1.2.14 </tspan>
<tspan x="10" y="2506">  │   └── isexe@2.0.0 </tspan>
<tspan x="10" y="2522">  ├─┬ ora@0.3.0 </tspan>
<tspan x="10" y="2538">  │ ├─┬ chalk@1.1.3 </tspan>
<tspan x="10" y="2554">  │ │ ├── ansi-styles@2.2.1 </tspan>
<tspan x="10" y="2570">  │ │ ├── escape-string-regexp@1.0.5 </tspan>
<tspan x="10" y="2586">  │ │ ├─┬ has-ansi@2.0.0 </tspan>
<tspan x="10" y="2602">  │ │ │ └── ansi-regex@2.1.1 </tspan>
<tspan x="10" y="2618">  │ │ ├── strip-ansi@3.0.1 </tspan>
<tspan x="10" y="2634">  │ │ └── supports-color@2.0.0 </tspan>
<tspan x="10" y="2650">  │ ├─┬ cli-cursor@1.0.2 </tspan>
<tspan x="10" y="2666">  │ │ └─┬ restore-cursor@1.0.1 </tspan>
<tspan x="10" y="2682">  │ │   ├── exit-hook@1.1.1 </tspan>
<tspan x="10" y="2698">  │ │   └── onetime@1.1.0 </tspan>
<tspan x="10" y="2714">  │ ├── cli-spinners@0.2.0 </tspan>
<tspan x="10" y="2730">  │ └── log-symbols@1.0.2 </tspan>
<tspan x="10" y="2746">  ├── rimraf@2.6.1 </tspan>
<tspan x="10" y="2762">  ├─┬ spawn-rx@2.0.10 </tspan>
<tspan x="10" y="2778">  │ ├── lodash.assign@4.2.0 </tspan>
<tspan x="10" y="2794">  │ └─┬ rxjs@5.3.0 </tspan>
<tspan x="10" y="2810">  │   └── symbol-observable@1.0.4 </tspan>
<tspan x="10" y="2826">  └─┬ yargs@3.32.0 </tspan>
<tspan x="10" y="2842">    ├── camelcase@2.1.1 </tspan>
<tspan x="10" y="2858">    ├─┬ cliui@3.2.0 </tspan>
<tspan x="10" y="2874">    │ └── wrap-ansi@2.1.0 </tspan>
<tspan x="10" y="2890">    ├── decamelize@1.2.0 </tspan>
<tspan x="10" y="2906">    ├─┬ os-locale@1.4.0 </tspan>
<tspan x="10" y="2922">    │ └─┬ lcid@1.0.0 </tspan>
<tspan x="10" y="2938">    │   └── invert-kv@1.0.0 </tspan>
<tspan x="10" y="2954">    ├─┬ string-width@1.0.2 </tspan>
<tspan x="10" y="2970">    │ ├── code-point-at@1.1.0 </tspan>
<tspan x="10" y="2986">    │ └─┬ is-fullwidth-code-point@1.0.0 </tspan>
<tspan x="10" y="3002">    │   └── number-is-nan@1.0.1 </tspan>
<tspan x="10" y="3018">    ├── window-size@0.1.4 </tspan>
<tspan x="10" y="3034">    └── y18n@3.2.1</tspan>
</text>
</svg>
